<svg xmlns="http://www.w3.org/2000/svg" xmlns:xlink="http://www.w3.org/1999/xlink" width="74" height="74" fill="none">
	<rect x="1" y="5" width="68" height="68" rx="34" stroke="#27AE60" stroke-width="2"/><g fill="#27AE60"><path d="M46.022 34.448h-1.348l-.03-.034-7.348-7.172c-.33-.323-.868-.323-1.2 0s-.33.847 0 1.17l6.183 6.035H27.72l6.183-6.035c.33-.323.33-.847 0-1.17s-.868-.323-1.2 0l-7.38 7.206h-1.348c-1.09 0-1.978.866-1.978 1.93v1.103c0 1.014.805 1.848 1.824 1.925l1.625 9.517C25.655 50.128 26.7 51 27.958 51H42.3c1.258 0 2.34-.916 2.518-2.132l1.385-9.462c1.01-.085 1.807-.915 1.807-1.924V36.38c0-1.065-.887-1.93-1.978-1.93zm.283 3.034a.28.28 0 0 1-.283.276h-8.478c-.468 0-.848.37-.848.828s.38.828.848.828h6.936l-1.35 9.22c-.06.405-.42.7-.84.7H27.958a.84.84 0 0 1-.836-.691l-1.578-9.24h6.912c.468 0 .848-.37.848-.828s-.38-.828-.848-.828h-8.478a.28.28 0 0 1-.283-.276V36.38a.28.28 0 0 1 .283-.276h22.043a.28.28 0 0 1 .283.276v1.103z"/><use xlink:href="#B"/><use xlink:href="#B" x="5.087"/><use xlink:href="#B" x="10.174"/></g><circle cx="59" cy="15" r="13" fill="#fff"/><path d="M59 2c-7.165 0-13 5.835-13 13s5.835 13 13 13 13-5.835 13-13S66.165 2 59 2zm0 2a10.99 10.99 0 0 1 11 11 10.99 10.99 0 1 1-22 0A10.99 10.99 0 0 1 59 4zm5.3 6.297L57 17.585l-3.297-3.288-1.405 1.405L57 20.415l8.7-8.712-1.42-1.405z" fill="#27AE60"/><defs ><path id="B" d="M29.913 41.07c-.468 0-.848.37-.848.828v4.965c0 .457.38.828.848.828s.848-.37.848-.828v-4.966c0-.457-.38-.828-.848-.828z"/></defs></svg>